<svg xmlns="http://www.w3.org/2000/svg" xmlns:xlink="http://www.w3.org/1999/xlink" width="500" zoomAndPan="magnify" viewBox="0 0 375 374.999991" height="500" preserveAspectRatio="xMidYMid meet" version="1.0"><defs><clipPath id="id1"><path d="M 17.613281 231 L 113 231 L 113 375 L 17.613281 375 Z M 17.613281 231 " clip-rule="nonzero"/></clipPath><clipPath id="id2"><path d="M 26.195312 90.304688 L 216 90.304688 L 216 375 L 26.195312 375 Z M 26.195312 90.304688 " clip-rule="nonzero"/></clipPath><clipPath id="id3"><path d="M 293.605469 161 L 374.558594 161 L 374.558594 375 L 293.605469 375 Z M 293.605469 161 " clip-rule="nonzero"/></clipPath><clipPath id="id4"><path d="M 0.453125 73.125 L 374.558594 73.125 L 374.558594 375 L 0.453125 375 Z M 0.453125 73.125 " clip-rule="nonzero"/></clipPath></defs><g clip-path="url(#id1)"><path fill="#6ebfb5" d="M 86.714844 236.992188 C 80.480469 242.46875 77.15625 250.722656 76.355469 258.976562 C 75.457031 268.261719 77.46875 277.636719 76.707031 286.929688 C 75.871094 297.085938 71.621094 306.929688 64.792969 314.488281 C 59.761719 320.070312 52.738281 324.589844 45.25 324.066406 C 42.085938 323.851562 39.03125 322.746094 35.871094 322.535156 C 32.570312 322.3125 29.472656 323.03125 26.574219 324.375 L 17.933594 375.332031 L 91.523438 375.332031 L 112.617188 234.324219 C 111.738281 233.746094 110.828125 233.222656 109.855469 232.78125 C 102.308594 229.339844 92.949219 231.523438 86.714844 236.992188 " fill-opacity="1" fill-rule="nonzero"/></g><path fill="#f36735" d="M 59.855469 213.585938 C 64.6875 203.53125 58.972656 190.335938 65 180.949219 C 72.003906 170.050781 89.808594 171.789062 97.96875 161.726562 C 105.4375 152.523438 101.0625 139.078125 100.382812 127.242188 C 99.605469 113.671875 105.1875 100.390625 114.351562 90.433594 L 66.242188 90.433594 L 43.019531 227.398438 C 43.210938 227.304688 43.398438 227.203125 43.589844 227.101562 C 49.957031 223.785156 56.738281 220.054688 59.855469 213.585938 " fill-opacity="1" fill-rule="nonzero"/><path fill="#6ebfb5" d="M 155.0625 259.335938 C 151.121094 257.289062 146.574219 256.859375 142.277344 255.734375 C 138.488281 254.738281 134.851562 253.171875 131.523438 251.113281 L 160.265625 325.019531 C 162.957031 314.324219 165.152344 303.523438 166.300781 292.558594 C 167.605469 280.167969 166.113281 265.058594 155.0625 259.335938 " fill-opacity="1" fill-rule="nonzero"/><g clip-path="url(#id2)"><path fill="#ffc7c7" d="M 196.984375 298.144531 C 198.257812 294.132812 200.890625 290.726562 203.082031 287.132812 C 210 275.765625 212.609375 261.839844 210.273438 248.738281 C 209.03125 241.730469 206.425781 234.949219 206.023438 227.847656 C 205.746094 222.886719 206.550781 217.953125 207.355469 213.039062 L 196.4375 242.328125 L 139.449219 90.433594 L 114.351562 90.433594 C 105.1875 100.390625 99.605469 113.671875 100.382812 127.242188 C 101.0625 139.078125 105.4375 152.523438 97.96875 161.726562 C 89.808594 171.789062 72.003906 170.050781 65 180.949219 C 58.972656 190.335938 64.6875 203.53125 59.855469 213.585938 C 56.738281 220.054688 49.957031 223.785156 43.589844 227.101562 C 43.398438 227.203125 43.210938 227.304688 43.019531 227.398438 L 26.574219 324.375 C 29.472656 323.03125 32.570312 322.3125 35.871094 322.535156 C 39.03125 322.746094 42.085938 323.851562 45.25 324.066406 C 52.738281 324.589844 59.761719 320.070312 64.792969 314.488281 C 71.621094 306.929688 75.871094 297.085938 76.707031 286.929688 C 77.46875 277.636719 75.457031 268.261719 76.355469 258.976562 C 77.15625 250.722656 80.480469 242.46875 86.714844 236.992188 C 92.949219 231.523438 102.308594 229.339844 109.855469 232.78125 C 110.828125 233.222656 111.738281 233.746094 112.617188 234.324219 L 116.054688 211.34375 L 131.523438 251.113281 C 134.851562 253.171875 138.488281 254.738281 142.277344 255.734375 C 146.574219 256.859375 151.121094 257.289062 155.0625 259.335938 C 166.113281 265.058594 167.605469 280.167969 166.300781 292.558594 C 165.152344 303.523438 162.957031 314.324219 160.265625 325.019531 L 179.832031 375.332031 L 209.269531 375.332031 L 215.195312 360.863281 C 212.152344 348.828125 208.03125 337.070312 202.851562 325.796875 C 198.824219 317.015625 194.054688 307.351562 196.984375 298.144531 " fill-opacity="1" fill-rule="nonzero"/></g><path fill="#ffc7c7" d="M 295.59375 300.152344 C 297.109375 292.847656 304.789062 288.9375 310.242188 283.859375 C 318.09375 276.539062 321.832031 265.621094 322.507812 254.90625 C 323.191406 244.191406 321.113281 233.507812 318.90625 222.992188 C 316.535156 211.734375 314.15625 199.328125 319.714844 189.257812 C 322.804688 183.664062 327.984375 179.5625 331.859375 174.484375 C 334.808594 170.613281 336.886719 166.332031 338.355469 161.804688 L 326.257812 90.433594 L 253.042969 90.433594 L 238.1875 130.300781 C 244.496094 134.53125 249.902344 139.703125 252.601562 146.699219 C 257.207031 158.640625 252.445312 171.945312 247.707031 183.835938 C 244.515625 191.851562 241.332031 199.859375 238.144531 207.863281 C 236.6875 211.53125 235.199219 215.351562 235.484375 219.289062 C 236.253906 229.820312 249.074219 236.683594 249.191406 247.242188 C 249.289062 255.894531 240.890625 262.042969 237.613281 270.046875 C 234.351562 278.011719 236.550781 287.394531 241.265625 294.59375 C 241.484375 294.917969 241.722656 295.226562 241.949219 295.550781 L 276.441406 211.34375 L 293.679688 326.589844 C 295.628906 323.96875 296.992188 321.070312 297.25 317.757812 C 297.707031 311.847656 294.394531 305.957031 295.59375 300.152344 " fill-opacity="1" fill-rule="nonzero"/><g clip-path="url(#id3)"><path fill="#24a19c" d="M 374.558594 375.332031 L 338.355469 161.804688 C 336.886719 166.332031 334.808594 170.613281 331.859375 174.484375 C 327.984375 179.5625 322.804688 183.664062 319.714844 189.257812 C 314.15625 199.328125 316.535156 211.734375 318.90625 222.992188 C 321.113281 233.507812 323.191406 244.191406 322.507812 254.90625 C 321.832031 265.621094 318.09375 276.539062 310.242188 283.859375 C 304.789062 288.9375 297.109375 292.847656 295.59375 300.152344 C 294.394531 305.957031 297.707031 311.847656 297.25 317.757812 C 296.992188 321.070312 295.628906 323.96875 293.679688 326.589844 L 300.96875 375.332031 L 374.558594 375.332031 " fill-opacity="1" fill-rule="nonzero"/></g><path fill="#f36735" d="M 237.613281 270.046875 C 240.890625 262.042969 249.289062 255.894531 249.191406 247.242188 C 249.074219 236.683594 236.253906 229.820312 235.484375 219.289062 C 235.199219 215.351562 236.6875 211.53125 238.144531 207.863281 C 241.332031 199.859375 244.515625 191.851562 247.707031 183.835938 C 252.445312 171.945312 257.207031 158.640625 252.601562 146.699219 C 249.902344 139.703125 244.496094 134.53125 238.1875 130.300781 L 207.355469 213.039062 C 206.550781 217.953125 205.746094 222.886719 206.023438 227.847656 C 206.425781 234.949219 209.03125 241.730469 210.273438 248.738281 C 212.609375 261.839844 210 275.765625 203.082031 287.132812 C 200.890625 290.726562 198.257812 294.132812 196.984375 298.144531 C 194.054688 307.351562 198.824219 317.015625 202.851562 325.796875 C 208.03125 337.070312 212.152344 348.828125 215.195312 360.863281 L 241.949219 295.550781 C 241.722656 295.226562 241.484375 294.917969 241.265625 294.59375 C 236.550781 287.394531 234.351562 278.011719 237.613281 270.046875 " fill-opacity="1" fill-rule="nonzero"/><g clip-path="url(#id4)"><path stroke-linecap="butt" transform="matrix(0.143001, 0, 0, -0.143179, 0.454766, 375.332025)" fill="none" stroke-linejoin="miter" d="M 8.866305 113.358172 L 346.686412 2103.169991 L 858.620319 2103.169991 L 1257.137141 1042.295329 L 1652.976971 2103.169991 L 2164.96551 2103.169991 L 2502.730985 113.358172 L 1988.120085 113.358172 L 1816.601329 1258.699028 L 1346.871034 113.358172 L 1141.015748 113.358172 L 695.050593 1258.699028 L 523.477205 113.358172 Z M 8.866305 113.358172 " stroke="#e3bce2" stroke-width="15" stroke-opacity="1" stroke-miterlimit="10"/></g></svg>