<svg id="ejon1ShZ9JI1" xmlns="http://www.w3.org/2000/svg" xmlns:xlink="http://www.w3.org/1999/xlink" viewBox="0 0 375 374.999991" shape-rendering="geometricPrecision" text-rendering="geometricPrecision"><g clip-path="url(#ejon1ShZ9JI5)"><g><path d="M86.714844,236.992188c-6.234375,5.476562-9.558594,13.730468-10.359375,21.984374-.898438,9.285157,1.113281,18.660157.351562,27.953126-.835937,10.15625-5.085937,20-11.914062,27.558593-5.03125,5.582031-12.054688,10.101563-19.542969,9.578125-3.164062-.214844-6.21875-1.320312-9.378906-1.53125-3.300782-.222656-6.398438.496094-9.296875,1.839844l-8.640625,50.957031h73.589844l21.09375-141.007812c-.878907-.578125-1.789063-1.101563-2.761719-1.542969-7.546875-3.441406-16.90625-1.257812-23.140625,4.210938" fill="#6ebfb5"/></g><clipPath id="ejon1ShZ9JI5"><path d="M17.613281,231L113,231v144h-95.386719Zm0,0"/></clipPath></g><path d="M59.855469,213.585938c4.832031-10.054688-.882813-23.25,5.144531-32.636719c7.003906-10.898438,24.808594-9.160157,32.96875-19.222657c7.46875-9.203124,3.09375-22.648437,2.414062-34.484374-.777343-13.570313,4.804688-26.851563,13.96875-36.808594h-48.109374L43.019531,227.398438c.191407-.09375.378907-.195313.570313-.296876c6.367187-3.316406,13.148437-7.046874,16.265625-13.515624" fill="#f36735"/><path d="M155.0625,259.335938c-3.941406-2.046876-8.488281-2.476563-12.785156-3.601563-3.789063-.996094-7.425782-2.5625-10.753906-4.621094l28.742187,73.90625c2.691406-10.695312,4.886719-21.496093,6.035156-32.460937c1.304688-12.390625-.1875-27.5-11.238281-33.222656" fill="#6ebfb5"/><g clip-path="url(#ejon1ShZ9JI12)"><g transform="translate(0 0.000001)"><path d="M196.984375,298.144531c1.273437-4.011719,3.90625-7.417969,6.097656-11.011719c6.917969-11.367187,9.527344-25.292968,7.191407-38.394531-1.242188-7.007812-3.847657-13.789062-4.25-20.890625-.277344-4.960937.527343-9.894531,1.332031-14.808594L196.4375,242.328125L139.449219,90.433594h-25.097657c-9.164062,9.957031-14.746093,23.238281-13.96875,36.808594.679688,11.835937,5.054688,25.28125-2.414062,34.484374-8.160156,10.0625-25.964844,8.324219-32.96875,19.222657-6.027344,9.386719-.3125,22.582031-5.144531,32.636719-3.117188,6.46875-9.898438,10.199218-16.265625,13.515624-.191406.101563-.378906.203126-.570313.296876L26.574219,324.375c2.898437-1.34375,5.996093-2.0625,9.296875-1.839844c3.160156.210938,6.214844,1.316406,9.378906,1.53125c7.488281.523438,14.511719-3.996094,19.542969-9.578125c6.828125-7.558593,11.078125-17.402343,11.914062-27.558593.761719-9.292969-1.25-18.667969-.351562-27.953126.800781-8.253906,4.125-16.507812,10.359375-21.984374c6.234375-5.46875,15.59375-7.652344,23.140625-4.210938.972656.441406,1.882812.964844,2.761719,1.542969l3.4375-22.980469l15.46875,39.769531c3.328124,2.058594,6.964843,3.625,10.753906,4.621094c4.296875,1.125,8.84375,1.554687,12.785156,3.601563c11.050781,5.722656,12.542969,20.832031,11.238281,33.222656-1.148437,10.964844-3.34375,21.765625-6.035156,32.460937l19.566406,50.3125h29.4375l5.925781-14.46875c-3.042968-12.035156-7.164062-23.792969-12.34375-35.066406-4.027343-8.78125-8.796874-18.445313-5.867187-27.652344" transform="translate(0 0.000001)" fill="#ffc7c7"/></g><clipPath id="ejon1ShZ9JI12"><path d="M26.195312,90.304688h189.804688L216,375h-189.804688Zm0,0"/></clipPath></g><path d="M295.59375,300.152344c1.515625-7.304688,9.195312-11.214844,14.648438-16.292969c7.851562-7.320313,11.589843-18.238281,12.265624-28.953125.683594-10.714844-1.394531-21.398438-3.601562-31.914062-2.371094-11.257813-4.75-23.664063.808594-33.734376c3.089844-5.59375,8.269531-9.695312,12.144531-14.773437c2.949219-3.871094,5.027344-8.152344,6.496094-12.679687L326.257812,90.433594h-73.214843L238.1875,130.300781c6.308594,4.230469,11.714844,9.402344,14.414062,16.398438c4.605469,11.941406-.15625,25.246093-4.894531,37.136719-3.191406,8.015624-6.375,16.023437-9.5625,24.027343-1.457031,3.667969-2.945312,7.488281-2.660156,11.425781.769531,10.53125,13.589844,17.394532,13.707031,27.953126.097656,8.652343-8.300781,14.800781-11.578125,22.804687-3.261719,7.964844-1.0625,17.347656,3.652344,24.546875.21875.324219.457031.632812.683594.957031l34.492187-84.207031l17.238282,115.246094c1.949218-2.621094,3.3125-5.519532,3.570312-8.832032.457031-5.910156-2.855469-11.800781-1.65625-17.605468" fill="#ffc7c7"/><g clip-path="url(#ejon1ShZ9JI18)"><g><path d="M374.558594,375.332031L338.355469,161.804688c-1.46875,4.527343-3.546875,8.808593-6.496094,12.679687-3.875,5.078125-9.054687,9.179687-12.144531,14.773437-5.558594,10.070313-3.179688,22.476563-.808594,33.734376c2.207031,10.515624,4.285156,21.199218,3.601562,31.914062-.675781,10.714844-4.414062,21.632812-12.265624,28.953125-5.453126,5.078125-13.132813,8.988281-14.648438,16.292969-1.199219,5.804687,2.113281,11.695312,1.65625,17.605468-.257812,3.3125-1.621094,6.210938-3.570312,8.832032l7.289062,48.742187h73.589844" fill="#24a19c"/></g><clipPath id="ejon1ShZ9JI18"><path d="M293.605469,161h80.953125v214h-80.953125Zm0,0"/></clipPath></g><path d="M237.613281,270.046875c3.277344-8.003906,11.675781-14.152344,11.578125-22.804687-.117187-10.558594-12.9375-17.421876-13.707031-27.953126-.285156-3.9375,1.203125-7.757812,2.660156-11.425781c3.1875-8.003906,6.371094-16.011719,9.5625-24.027343c4.738281-11.890626,9.5-25.195313,4.894531-37.136719-2.699218-6.996094-8.105468-12.167969-14.414062-16.398438l-30.832031,82.738281c-.804688,4.914063-1.609375,9.847657-1.332031,14.808594.402343,7.101563,3.007812,13.882813,4.25,20.890625c2.335937,13.101563-.273438,27.027344-7.191407,38.394531-2.191406,3.59375-4.824219,7-6.097656,11.011719-2.929687,9.207031,1.839844,18.871094,5.867187,27.652344c5.179688,11.273437,9.300782,23.03125,12.34375,35.066406l26.753907-65.3125c-.226563-.324219-.464844-.632812-.683594-.957031-4.714844-7.199219-6.914063-16.582031-3.652344-24.546875" fill="#f36735"/><g clip-path="url(#ejon1ShZ9JI24)"><g><path d="M8.866305,113.358172L346.686412,2103.169991h511.933907l398.516822-1060.874662l395.83983,1060.874662h511.988539L2502.730985,113.358172h-514.6109L1816.601329,1258.699028L1346.871034,113.358172h-205.855286L695.050593,1258.699028L523.477205,113.358172Zm0,0" transform="matrix(.143001 0 0-.143179 0.454766 375.332)" fill="none" stroke="#e3bce2" stroke-width="15" stroke-miterlimit="10" stroke-dashoffset="13344.391729" stroke-dasharray="13344.39"/></g><clipPath id="ejon1ShZ9JI24"><path d="M0.453125,73.125h374.105469v301.875h-374.105469Zm0,0"/></clipPath></g></svg>